
<svg width="27px" height="23px" viewBox="0 0 27 23" version="1.1" xmlns="http://www.w3.org/2000/svg" xmlns:xlink="http://www.w3.org/1999/xlink">
    <!-- Generator: Sketch 43.2 (39069) - http://www.bohemiancoding.com/sketch -->
    <desc>Created with Sketch.</desc>
    <defs></defs>
    <g id="Page-1" stroke="none" stroke-width="1" fill="none" fill-rule="evenodd">
        <g id="webpage-full" transform="translate(-748.000000, -17.000000)" fill="#76BBC5">
            <path d="M758.788622,28.0853818 C758.788622,28.0853818 755.994166,16.0320415 751.628933,17.0627512 C747.264269,18.092893 750.082663,24.9273783 750.477637,25.1948517 C750.477637,25.1948517 746.957067,26.4322712 749.318933,31.5403887 C751.681368,36.6479384 756.230124,32.6829716 756.230124,32.6829716 C756.230124,32.6829716 753.271523,36.2367903 753.573026,36.4554257 C753.875098,36.6734932 754.281472,37.4821602 756.904943,33.097527 C756.904943,33.097527 756.295668,40.2080039 761.686808,39.7173521 C767.077948,39.227836 767.213026,36.3861439 767.223855,35.9159358 C767.223855,35.9159358 773.453959,35.8682335 774.581886,32.9544202 C775.709813,30.0411747 768.083907,26.0847261 760.418104,29.0621425 C760.418104,29.0621425 760.975513,26.3243732 758.788622,28.0853818" id="Fill-3"></path>
        </g>
    </g>
</svg>