
<svg width="32px" height="43px" viewBox="522 -25 32 43" version="1.1" xmlns="http://www.w3.org/2000/svg" xmlns:xlink="http://www.w3.org/1999/xlink">
    <!-- Generator: Sketch 41.2 (35397) - http://www.bohemiancoding.com/sketch -->
    <desc>Created with Sketch.</desc>
    <defs>
        <polygon id="path-1" points="15.9615065 0.0415584416 0.00623376623 0.0415584416 0.00623376623 42.5976104 31.9167792 42.5976104 31.9167792 0.0415584416"></polygon>
    </defs>
    <g id="Group-2" stroke="none" stroke-width="1" fill="none" fill-rule="evenodd" transform="translate(522.000000, -25.000000)">
        <g id="Group">
            <mask id="mask-2" fill="white">
                <use xlink:href="#path-1"></use>
            </mask>
            <g id="Clip-2"></g>
            <path d="M15.9586494,0.0415584416 C7.14524675,0.0415584416 0,7.18680519 0,16.0002078 C0,24.8130909 13.2987013,42.5976104 15.9586494,42.5976104 C18.6180779,42.5976104 31.9167792,24.8130909 31.9167792,16.0002078 C31.9167792,7.18680519 24.7715325,0.0415584416 15.9586494,0.0415584416 Z M15.9586494,26.638961 C10.0909091,26.638961 5.31937662,21.865039 5.31937662,16.0002078 C5.31937662,10.1352727 10.0909091,5.36093506 15.9586494,5.36093506 C21.8258701,5.36093506 26.5974026,10.1352727 26.5974026,16.0002078 C26.5974026,21.865039 21.8258701,26.638961 15.9586494,26.638961 Z" id="Fill-1" fill="#FE7026" mask="url(#mask-2)"></path>
            <circle id="Oval" fill="#CF5414" mask="url(#mask-2)" cx="16.2597403" cy="16" r="11"></circle>
        </g>
    </g>
</svg>