<svg width="32px" height="43px" viewBox="-1567 -1127 32 43" version="1.1" xmlns="http://www.w3.org/2000/svg" xmlns:xlink="http://www.w3.org/1999/xlink">
    <defs>
        <polygon id="path-1" points="15.9615065 0.0415584416 0.00623376623 0.0415584416 0.00623376623 42.5976104 31.9167792 42.5976104 31.9167792 0.0415584416"></polygon>
        <polygon id="path-3" points="15.9615065 0.0415584416 0.00623376623 0.0415584416 0.00623376623 42.5976104 31.9167792 42.5976104 31.9167792 0.0415584416"></polygon>
    </defs>
    <g id="Group-2" stroke="none" stroke-width="1" fill="none" fill-rule="evenodd" transform="translate(-1567.000000, -1127.000000)">
        <g id="Group">
            <g id="Fill-1-Clipped">
                <mask id="mask-2" fill="white">
                    <use xlink:href="#path-1"></use>
                </mask>
                <g id="path-1"></g>
                <path d="M15.9586494,0.0415584416 C7.14524675,0.0415584416 0,7.18680519 0,16.0002078 C0,24.8130909 13.2987013,42.5976104 15.9586494,42.5976104 C18.6180779,42.5976104 31.9167792,24.8130909 31.9167792,16.0002078 C31.9167792,7.18680519 24.7715325,0.0415584416 15.9586494,0.0415584416 Z M15.9586494,26.638961 C10.0909091,26.638961 5.31937662,21.865039 5.31937662,16.0002078 C5.31937662,10.1352727 10.0909091,5.36093506 15.9586494,5.36093506 C21.8258701,5.36093506 26.5974026,10.1352727 26.5974026,16.0002078 C26.5974026,21.865039 21.8258701,26.638961 15.9586494,26.638961 Z" id="Fill-1" fill="#5A9542" mask="url(#mask-2)"></path>
            </g>
            <g id="Oval-Clipped">
                <mask id="mask-4" fill="white">
                    <use xlink:href="#path-3"></use>
                </mask>
                <g id="path-1"></g>
                <circle id="Oval" fill="#447C2D" mask="url(#mask-4)" cx="16.2597403" cy="16" r="11"></circle>
            </g>
        </g>
    </g>
    <g id="Group-4" stroke="none" stroke-width="1" fill="none" fill-rule="evenodd" transform="translate(-1561.000000, -1125.000000)">
        <path d="M14.4463042,5.13955953 C14.6232079,5.18148594 14.7244547,5.18806375 14.8106814,5.2283886 C18.202449,6.81244026 20.3231799,9.45163025 20.7855774,13.2776864 C21.2917001,17.4656367 19.1627359,21.3541534 15.4784096,23.3349902 C14.3929549,23.9185852 13.240466,24.2899742 12.0347947,24.4839911 C11.7946952,24.5226 11.4615265,24.6365391 11.4284266,24.1789521 C11.2729404,22.0270923 11.1689121,19.860418 11.8247911,17.7833736 C12.2536992,16.4253127 12.8209594,15.0923619 13.4889657,13.8399464 C14.4971501,11.9495975 14.8099026,9.97716887 14.5970618,7.86683501 C14.5074417,6.97842993 14.4959263,6.08178828 14.4463042,5.13955953" id="Fill-4" fill="#FFFFFF"></path>
        <path d="M6.43679273,5.13429728 C6.3822196,6.16329596 6.36057949,7.14573516 6.27168258,8.12165375 C6.09900672,10.0165213 6.33532342,11.8222167 7.24554322,13.5056219 C8.04945389,14.9923219 8.83250327,16.4846274 9.1825279,18.1754112 C9.53666915,19.8861001 9.66300513,21.6037671 9.47886947,23.3443135 C9.45700684,23.5508568 9.44037344,23.7631772 9.46195792,23.9683477 C9.5151403,24.4740385 9.25901929,24.5493116 8.85125061,24.4941152 C4.62347378,23.9218455 1.10019662,20.681901 0.231643763,16.379268 C-0.737098911,11.580954 1.79334774,7.09831771 6.12142566,5.2038505 C6.1937448,5.1722198 6.27752374,5.16838751 6.43679273,5.13429728" id="Fill-5" fill="#FFFFFF"></path>
        <path d="M9.91100414,4.86432098 C9.91100414,3.44082514 9.92213016,2.01721491 9.90405038,0.593947874 C9.89876552,0.180232064 10.0024044,0.0130984267 10.4401021,0.0145855843 C10.8695109,0.0160155436 10.9805486,0.164960099 10.978379,0.586626482 C10.9638039,3.46828036 10.9651947,6.35010583 10.9772108,9.23170251 C10.9788797,9.63803973 10.8916517,9.82136051 10.4470002,9.81895818 C10.0141424,9.81667024 9.89954434,9.65537084 9.90438416,9.23890951 C9.92151823,7.78092306 9.91100414,6.32253622 9.91100414,4.86432098" id="Fill-13" fill="#FFFFFF"></path>
        <path d="M8.73192403,0.183149181 L8.73192403,9.57449234 C7.83177328,9.62888799 7.76485026,9.56837212 7.76479463,8.72315181 C7.76457211,6.15168469 7.76457211,3.58021757 7.76479463,1.00880765 C7.76485026,0.181662023 7.82893615,0.123720074 8.73192403,0.183149181" id="Fill-14" fill="#FFFFFF"></path>
        <path d="M13.1105141,0.268946736 L13.1105141,0.950465313 C13.1105141,3.52221842 13.1105697,6.09397153 13.1105141,8.66572464 C13.1104585,9.551327 13.1103472,9.551327 12.1701428,9.61601836 L12.1701428,0.134301773 C12.4645373,0.176456971 12.751533,0.217468203 13.1105141,0.268946736" id="Fill-15" fill="#FFFFFF"></path>
    </g>

    <style>
      Fill-1:hover
      {
        fill: #5BB437;
      }
    </style>

</svg>